<svg width="110" height="109" viewBox="0 0 110 109" fill="none" xmlns="http://www.w3.org/2000/svg">
<path d="M50.3863 105.812C48.8009 105.641 48.2441 105.386 48.1155 104.88L45.7877 105.006C46.1289 106.303 47.419 106.981 50.2387 107.285C53.1603 107.601 54.8175 107.001 54.9617 105.664C55.0888 104.487 54.128 103.73 51.6691 103.373L49.3348 103.029C48.4892 102.904 48.2636 102.765 48.2942 102.482C48.3308 102.142 49.0035 102.066 50.8946 102.27C52.2762 102.419 52.9538 102.721 53.0763 103.284L55.4834 103.166C55.1067 101.774 53.8757 101.079 51.0333 100.773C47.7267 100.416 46.0582 101.015 45.8981 102.498C45.7759 103.63 46.6684 104.277 49.0229 104.645L51.3471 104.976L51.6795 105.031C52.4378 105.164 52.6651 105.29 52.6381 105.54C52.6002 105.891 51.9603 105.982 50.3863 105.812ZM44.7825 100.008L42.5151 99.2113L41.726 101.457C41.2767 102.736 40.0308 103.155 38.3866 102.578C37.2261 102.17 36.8163 101.446 37.1561 100.479L38.1415 97.6746L35.8742 96.8779L34.7302 100.134C34.0921 101.95 34.8768 103.324 37.0367 104.083C38.4337 104.574 39.8184 104.481 40.8651 103.907L39.6834 107.271L41.9507 108.067L44.7825 100.008ZM30.3541 93.3622C27.5685 91.5451 25.4013 91.532 24.25 93.2969C23.1113 95.0426 24.0033 97.0524 26.7698 98.857C29.5267 100.655 31.7446 100.674 32.8834 98.9285C34.0222 97.1828 33.1111 95.1606 30.3541 93.3622ZM29.3958 94.8313C30.9699 95.858 31.4016 96.6972 30.8228 97.5844C30.2441 98.4716 29.3021 98.4147 27.7281 97.3879C26.1541 96.3611 25.7319 95.5282 26.3106 94.641C26.8893 93.7538 27.8218 93.8045 29.3958 94.8313ZM23.4359 87.9746L22.0492 86.3881L17.571 87.4434L19.2232 83.1551L17.844 81.5772L11.0661 83.3417L12.7002 85.2111L16.7198 84.0121L15.1963 88.0668L16.643 89.7219L20.833 88.6311L19.1316 92.569L20.8482 94.5328L23.4359 87.9746ZM15.3349 78.3379L14.2255 76.2061L12.2957 77.2103C11.1237 77.8202 9.94764 77.238 9.10641 75.6215C8.90662 75.2375 8.7525 74.8426 8.68085 74.5076L6.66372 75.4674C6.70135 75.589 6.7863 75.8016 6.85465 75.933C7.56969 77.3071 8.76076 78.1895 10.0482 78.4183L8.7631 79.2797L9.77783 81.2297L15.3349 78.3379ZM10.7985 66.8637C9.96483 63.9628 9.01496 62.8018 7.61917 62.646L7.88104 65.0831C8.36459 65.1574 8.7802 65.8201 9.21117 67.3199C9.65787 68.8743 9.56854 69.8006 8.92935 70.2569L6.81855 62.9116C6.59798 62.9276 6.41968 62.967 6.14601 63.0456C4.25222 63.5898 3.65633 65.7638 4.51512 68.7523C5.39908 71.8284 7.13952 73.3073 9.0771 72.7505C11.0694 72.178 11.7013 70.0055 10.7985 66.8637ZM6.03358 68.3041C5.62149 66.8701 5.6703 66.0502 6.27036 65.5815L7.70482 70.5732C6.96937 70.4883 6.4614 69.7929 6.03358 68.3041ZM9.05461 56.0322C8.91731 53.017 8.26296 51.6672 6.94151 51.1915L6.63036 53.6228C7.08343 53.8074 7.33381 54.5485 7.40479 56.1073C7.47837 57.723 7.1764 58.6033 6.44875 58.8987L6.10109 51.264C5.88283 51.2283 5.70027 51.2252 5.41581 51.2382C3.44741 51.3278 2.36304 53.3041 2.50449 56.4103C2.65008 59.6075 3.99957 61.4501 6.01348 61.3584C8.08428 61.2641 9.20331 59.2977 9.05461 56.0322ZM4.08552 56.3269C4.01764 54.8364 4.25548 54.0502 4.94797 53.7337L5.18423 58.922C4.4886 58.6687 4.15598 57.8743 4.08552 56.3269ZM9.05623 47.2449L0.571461 46.2546L0.292847 48.6416L8.77762 49.632L9.05623 47.2449ZM8.44163 32.6793L8.62232 32.2907C9.17577 31.1437 9.56032 30.7781 10.0321 30.8095L10.6331 28.5571C9.29428 28.4794 8.25006 29.4959 7.08661 32.0823C5.88111 34.7622 5.93798 36.5238 7.16368 37.0751C8.24396 37.5611 9.26123 36.8822 10.3629 34.6551L11.4132 32.5423C11.7948 31.7773 11.9968 31.6059 12.2565 31.7227C12.5681 31.8629 12.4322 32.5261 11.6519 34.2607C11.0818 35.528 10.5844 36.0786 10.011 36.0205L9.37725 38.3456C10.8179 38.4192 11.8595 37.464 13.0323 34.8567C14.3967 31.8236 14.3445 30.0517 12.9838 29.4396C11.945 28.9723 11.0539 29.6206 9.97353 31.7448L8.93829 33.8519L8.78374 34.1511C8.42161 34.8307 8.23173 35.0078 8.0026 34.9047C7.6806 34.7599 7.79216 34.1232 8.44163 32.6793ZM15.6859 29.1603L17.1439 27.2498L15.2515 25.8056C14.174 24.9834 14.1599 23.6688 15.2171 22.2835C15.9634 21.3056 16.778 21.1393 17.5929 21.7612L19.9561 23.5646L21.4141 21.6541L18.6706 19.5605C17.1404 18.3927 15.5909 18.7146 14.2021 20.5346C13.3038 21.7117 12.9645 23.0574 13.1871 24.2302L10.353 22.0675L8.89506 23.9779L15.6859 29.1603ZM26.4489 17.4805C29.0321 15.3857 29.7086 13.3266 28.3814 11.69C27.0686 10.0711 24.8822 10.3044 22.3167 12.3849C19.76 14.4582 19.0624 16.5636 20.3753 18.1825C21.6881 19.8014 23.8922 19.5538 26.4489 17.4805ZM25.3441 16.1181C23.8844 17.3018 22.9533 17.4557 22.2861 16.6329C21.619 15.8102 21.9618 14.931 23.4215 13.7473C24.8811 12.5635 25.8034 12.4169 26.4706 13.2396C27.1378 14.0624 26.8038 14.9344 25.3441 16.1181ZM33.7163 12.5432L35.6528 11.7128L36.0287 7.12728L39.5992 10.0204L41.5253 9.19438L41.935 2.20255L39.653 3.18117L39.5553 7.37474L36.1672 4.67603L34.1469 5.54243L33.8936 9.86465L30.6716 7.0328L28.2744 8.0608L33.7163 12.5432ZM45.3643 7.81412L47.735 7.42035L47.3786 5.27429C47.1621 3.97093 48.0802 3.03333 49.8779 2.73473C50.3049 2.66382 50.7281 2.63971 51.0688 2.67548L50.7817 0.460177C50.6544 0.458233 50.4259 0.473086 50.2799 0.497347C48.7518 0.751153 47.5435 1.60995 46.9269 2.76305L46.5064 1.2742L44.3378 1.63438L45.3643 7.81412ZM57.6931 7.0382C60.7098 7.13613 62.1065 6.58889 62.6837 5.3085L60.284 4.80895C60.0647 5.24627 59.3063 5.43817 57.7467 5.38754C56.1302 5.33506 55.2761 4.96546 55.0383 4.21701L62.6769 4.46499C62.7294 4.25017 62.7467 4.0684 62.756 3.7838C62.8199 1.8144 60.9341 0.57941 57.8263 0.478521C54.6275 0.374676 52.6853 1.57657 52.6199 3.5915C52.5527 5.66336 54.426 6.93213 57.6931 7.0382ZM57.7863 2.06124C59.2776 2.10965 60.0428 2.408 60.3045 3.12303L55.1135 2.95452C55.4203 2.28072 56.2381 2.01098 57.7863 2.06124ZM68.5311 8.70693C71.4428 9.50216 72.9283 9.29392 73.7868 8.1824L71.5685 7.13968C71.2537 7.51418 70.4715 7.52488 68.9662 7.11376C67.406 6.68764 66.661 6.12995 66.6034 5.34675L73.9759 7.36033C74.0769 7.16357 74.1359 6.99077 74.2109 6.71609C74.7301 4.81527 73.1823 3.17642 70.1827 2.35718C67.0952 1.51394 64.9273 2.2324 64.3961 4.17717C63.8499 6.17688 65.3777 7.84569 68.5311 8.70693ZM69.7766 3.88743C71.2159 4.28055 71.891 4.7483 71.9797 5.50454L66.9694 4.13615C67.4242 3.55193 68.2823 3.47932 69.7766 3.88743ZM76.9021 11.4224L80.4747 3.66294L78.2917 2.65784L74.7191 10.4173L76.9021 11.4224ZM90.9214 15.3219L91.2356 15.6134C92.1566 16.4929 92.3862 16.9713 92.2112 17.4105L94.1694 18.6754C94.6553 17.4254 94.0094 16.1191 91.9064 14.2163C89.7274 12.2447 88.0338 11.7568 87.1321 12.7534C86.3373 13.6317 86.6703 14.8085 88.4503 16.542L90.1375 18.1915C90.748 18.7899 90.8489 19.0349 90.6579 19.246C90.4286 19.4994 89.8394 19.1659 88.429 17.8898C87.3986 16.9575 87.0278 16.3148 87.2595 15.7871L85.2421 14.4687C84.7289 15.8168 85.3173 17.1018 87.4371 19.0199C89.9033 21.2513 91.6054 21.7468 92.6064 20.6405C93.3706 19.7959 93.028 18.7486 91.3392 17.067L89.6529 15.4336L89.4158 15.1945C88.8806 14.6409 88.7705 14.4057 88.9391 14.2194C89.1759 13.9576 89.7475 14.2596 90.9214 15.3219ZM92.0472 23.3028L93.4186 25.2764L95.3734 23.918C96.4865 23.1446 97.742 23.5342 98.7364 24.9653C99.4384 25.9755 99.3469 26.8019 98.5051 27.3868L96.0639 29.0832L97.4353 31.0567L100.269 29.0874C101.85 27.989 102.019 26.4154 100.712 24.5354C99.8674 23.3195 98.6905 22.5839 97.506 22.4361L100.434 20.4018L99.0622 18.4282L92.0472 23.3028ZM99.8589 37.1468C101.054 40.2506 102.804 41.5297 104.77 40.7726C106.715 40.0236 107.168 37.872 105.981 34.7895C104.799 31.7177 103.011 30.4042 101.066 31.1532C99.1211 31.9021 98.6762 34.075 99.8589 37.1468ZM101.496 36.5166C100.821 34.7628 100.962 33.8297 101.95 33.4491C102.939 33.0685 103.669 33.666 104.344 35.4198C105.02 37.1736 104.874 38.0961 103.886 38.4767C102.897 38.8573 102.171 38.2704 101.496 36.5166ZM102.304 45.5616L102.494 47.6601L106.738 49.4362L102.882 51.9364L103.072 54.0236L109.594 56.5765L109.369 54.1036L105.412 52.7132L109.026 50.3264L108.828 48.1371L104.796 46.559L108.486 44.3712L108.25 41.7736L102.304 45.5616ZM103.208 58.1186L102.859 60.4963L105.011 60.813C106.318 61.0054 106.93 62.1661 106.665 63.9691C106.602 64.3973 106.495 64.8076 106.357 65.1211L108.554 65.525C108.595 65.4044 108.65 65.1823 108.672 65.0358C108.898 63.5033 108.449 62.0904 107.54 61.1507L109.086 61.2056L109.406 59.0307L103.208 58.1186ZM100.161 70.0744C99.1363 72.9135 99.2255 74.4109 100.265 75.3552L101.481 73.227C101.133 72.8834 101.185 72.1028 101.714 70.6351C102.263 69.1138 102.879 68.4156 103.664 68.4205L101.069 75.6092C101.258 75.7255 101.425 75.7981 101.693 75.8948C103.546 76.5637 105.303 75.1514 106.359 72.2266C107.445 69.2162 106.902 66.9978 105.006 66.3134C103.056 65.6097 101.271 66.9997 100.161 70.0744ZM104.866 71.6999C104.359 73.1033 103.839 73.739 103.078 73.7672L104.842 68.8818C105.388 69.3817 105.392 70.2429 104.866 71.6999ZM95.2317 79.8645C93.575 82.3875 93.3137 83.8646 94.1053 85.0248L95.7828 83.2377C95.5241 82.8225 95.7558 82.0753 96.6122 80.771C97.4999 79.419 98.2607 78.883 99.0233 79.0703L94.8286 85.4588C94.9844 85.6157 95.1305 85.7252 95.3685 85.8815C97.0157 86.963 99.0528 85.9979 100.759 83.3987C102.516 80.7233 102.503 78.4394 100.818 77.3329C99.0853 76.1952 97.0259 77.132 95.2317 79.8645ZM99.4298 82.5393C98.6109 83.7865 97.9573 84.2839 97.2107 84.1343L100.061 79.7928C100.476 80.4059 100.28 81.2444 99.4298 82.5393ZM90.0587 86.9964L91.687 85.2288L97.9698 91.0166L96.3415 92.7842L90.0587 86.9964Z" fill="white"/>
</svg>
